<svg width="210" height="30" viewBox="0 0 210 30" fill="none" xmlns="http://www.w3.org/2000/svg">
<path d="M142.445 18.1263V29.5229H136.339L136.301 18.6986C136.301 12.9627 133.34 10.8692 129.635 10.8692C125.224 10.8692 122.005 13.0037 122.005 19.8577L122.024 29.5229H115.917L115.906 18.6986C115.906 13.0142 112.85 10.8692 109.028 10.8692C104.946 10.8692 101.798 12.9429 101.798 20.2449L101.79 29.5229H95.6834V6.77078H101.79V10.1423C103.35 8.04617 106.696 6.29102 110.658 6.29102C115.688 6.29102 118.788 8.11886 120.588 11.4481C122.506 8.33693 126.191 6.29102 130.959 6.29102C138.14 6.29102 142.448 10.5295 142.448 18.1263H142.445ZM194.854 25.4231C189.394 25.4231 185.745 22.6926 185.745 18.1263C185.745 13.5601 189.394 10.8692 194.854 10.8692C200.314 10.8692 203.979 13.5587 203.979 18.1263C203.979 22.694 200.314 25.4231 194.854 25.4231ZM203.895 0.65157V9.72598C201.495 7.51354 197.961 6.28838 193.564 6.28838C185.331 6.28838 179.602 10.967 179.602 18.3034C179.602 25.6399 185.294 30 193.723 30C198.156 30 201.568 28.9162 203.895 26.9047V29.5189H210V0.65289H203.895V0.65157ZM161.638 10.7278C165.548 10.7278 168.721 12.1565 169.902 15.2148L152.789 17.4061C152.794 17.3413 152.801 17.2765 152.807 17.2131C153.324 12.3309 157.749 10.7278 161.639 10.7278H161.638ZM162.658 25.1496C158.395 25.1496 154.925 24.087 153.477 21.371L176.109 18.466C176.109 18.4303 176.109 18.3946 176.109 18.3576C176.083 10.9353 170.439 6.28838 161.592 6.28838C152.744 6.28838 146.622 10.7674 146.622 18.1039C146.622 25.4403 151.94 30 162.178 30C167.072 30 171.157 29.1766 174.933 27.4135V21.975L174.79 21.8745C171.781 23.6759 167.455 25.1482 162.657 25.1482L162.658 25.1496ZM76.8554 10.7278C80.7662 10.7278 83.9392 12.1565 85.1201 15.2148L68.0069 17.4061C68.0122 17.3413 68.0188 17.2765 68.0253 17.2131C68.5421 12.3309 72.967 10.7278 76.8568 10.7278H76.8554ZM77.8759 25.1496C73.6127 25.1496 70.1425 24.087 68.6947 21.371L91.3268 18.466C91.3268 18.4303 91.3268 18.3946 91.3268 18.3576C91.3005 10.9353 85.6566 6.28838 76.8094 6.28838C67.9622 6.28838 61.8397 10.7674 61.8397 18.1039C61.8397 25.4403 67.1574 30 77.3959 30C82.2903 30 86.3746 29.1766 90.1512 27.4135V21.975L90.0079 21.8745C86.9992 23.6759 82.6729 25.1482 77.8745 25.1482L77.8759 25.1496ZM44.758 0C37.9517 0 32.2762 4.46055 28.8533 9.72201C25.4304 4.46055 19.755 0 12.9486 0C5.0298 0 0 4.66408 0 12.7446C0 19.14 2.10003 25.0253 4.52748 29.5202H11.5495L11.6047 29.4066C8.48821 24.1782 6.39213 17.862 6.39213 12.8279C6.39213 7.79373 8.87218 5.31565 12.8513 5.31565C18.561 5.31565 23.8511 10.7674 28.7495 21.1371H28.9598C33.8595 10.7674 39.1483 5.31565 44.858 5.31565C48.8371 5.31565 51.3172 8.00387 51.3172 12.8279C51.3172 17.6519 49.2211 24.1782 46.1046 29.4066L46.1598 29.5202H53.1818C55.6093 25.0253 57.7093 19.14 57.7093 12.7446C57.7093 4.66276 52.6782 0 44.7607 0H44.758Z" fill="#6161FF"/>
</svg>
